# xmcd
#
# Track frame offsets:
#	150
#	13388
#	26625
#	38468
#	50555
#	61600
#	72383
#	82600
#	93498
#	102495
#	116505
#	129975
#	141298
#	152523
#	162483
#	171900
#	182220
#	193938
#	205040
#	215090
#	226230
#	237358
#	249403
#	259218
#	274230
#
# Disc length: 3825
#
# Revision: 2
# Processed by: cddbd v1.5.1PL0 Copyright (c) Steve Scherf et al.
# Submitted via: CDex 1.40Release
# Normalized: r1:DSETVAR1,TDELIM( - )
#
DISCID=640eef19
DTITLE=Various Artist - Fifty Years Of Country Music From Mercury - Disc 2
DYEAR=1995
DGENRE=Country
TTITLE0=Jimmie Skinner - I Found My Girl  In The U. S. A.
TTITLE1=Connie Hall - I'm The Girl From The U. S. A.
TTITLE2=Johnny Preston - Running Bear
TTITLE3=George Jones - Out Of Control
TTITLE4=Claude Gray - My Ears Should Burn (When Fools Are Talked About)
TTITLE5=Leroy Van Dyke - Walk On By
TTITLE6=Benny Barnes - Go On, Go On
TTITLE7=Bruce Channel - Hey ! Baby
TTITLE8=Anita Carter - Love's Ring Of Fire
TTITLE9=Rex Allen - Don't Go Near The Indians
TTITLE10=Dickey Lee - Patches
TTITLE11=James O'Gwynn - My Name Is Mud
TTITLE12=Faron Young - The Yellow Bandana
TTITLE13=Dolly Parton - The Love You Gave
TTITLE14=Pete Drake - For Pete's Sake
TTITLE15=Dallas Frazier - Shooby Dooby Sue
TTITLE16=Roy Drusky and Priscilla Mitchell - Yes Mr. Peters
TTITLE17=Roger Miller - King Of The Road
TTITLE18=Dave Dudley - Truck Drivin' Son-Of-A-Gun
TTITLE19=Ron-dels - If You Really Want Me To I'll Go
TTITLE20=Thumbs Carllile - Downtown
TTITLE21=Mother Maybelle Carter - Wildwood Flower
TTITLE22=Charlie Rich - Mohair Sam
TTITLE23=Tom T. Hall - Homecoming
TTITLE24=Sir Douglas Quintet - Dynamite Woman
EXTD=YEAR: 1995 ID3G: 2
EXTT0=
EXTT1=
EXTT2=
EXTT3=
EXTT4=
EXTT5=
EXTT6=
EXTT7=
EXTT8=
EXTT9=
EXTT10=
EXTT11=
EXTT12=
EXTT13=
EXTT14=
EXTT15=
EXTT16=
EXTT17=
EXTT18=
EXTT19=
EXTT20=
EXTT21=
EXTT22=
EXTT23=
EXTT24=
PLAYORDER=
